<svg xmlns="http://www.w3.org/2000/svg" width="117" height="72" viewBox="0 0 117 72"><rect width="100%" height="100%" fill="#DDDDDD"/><path fill="#999999" d="M29.605 40.91h2.34v1.67h-7.2v-1.67h2.64v-7.58q0-.45.02-.93l-1.87 1.57q-.16.12-.32.15-.15.04-.29.01-.14-.03-.25-.1-.11-.06-.16-.14l-.71-.97 3.97-3.37h1.83v11.36Zm10.44 0h2.34v1.67h-7.2v-1.67h2.64v-7.58q0-.45.02-.93l-1.87 1.57q-.16.12-.32.15-.15.04-.29.01-.14-.03-.25-.1-.11-.06-.16-.14l-.71-.97 3.97-3.37h1.83v11.36Zm4.3-11.34h8.99v.96q0 .43-.09.7-.09.26-.18.44l-4.93 10.15q-.15.32-.43.54-.28.22-.75.22h-1.61l5.03-9.95q.17-.3.34-.56.17-.25.37-.49h-6.22q-.21 0-.36-.15-.16-.15-.16-.36v-1.5Zm23.45 10.03-1.18 1.16-3.05-3.05-3.08 3.07-1.18-1.16 3.08-3.09-2.93-2.93 1.17-1.17 2.93 2.93 2.92-2.91 1.18 1.17-2.92 2.92 3.06 3.06Zm6.18-10.03h8.99v.96q0 .43-.09.7-.09.26-.18.44l-4.93 10.15q-.15.32-.43.54-.28.22-.75.22h-1.61l5.03-9.95q.17-.3.34-.56.17-.25.37-.49h-6.23q-.2 0-.36-.15-.15-.15-.15-.36v-1.5Zm15.09 10.94h3.34q.36 0 .57.2.22.2.22.54v1.33h-8.93v-.74q0-.22.09-.47.1-.25.3-.45l3.96-3.96q.49-.5.88-.96.39-.46.65-.91.27-.45.4-.91.14-.47.14-.98 0-.47-.13-.82-.14-.36-.38-.6-.25-.24-.6-.36-.34-.13-.78-.13-.39 0-.73.12-.34.11-.6.31-.26.2-.44.47-.18.27-.27.6-.15.41-.39.55-.25.13-.71.06l-1.17-.21q.14-.93.53-1.64.38-.71.96-1.18t1.33-.71q.76-.24 1.62-.24.9 0 1.65.27.74.26 1.28.75.53.48.82 1.17.3.68.3 1.52 0 .72-.21 1.33-.21.61-.57 1.17-.35.56-.83 1.08t-1 1.06l-2.93 3q.42-.13.84-.19.42-.07.79-.07Z"/></svg>