<svg xmlns="http://www.w3.org/2000/svg" width="70" height="70" viewBox="0 0 70 70"><rect width="100%" height="100%" fill="#EEE"/><path fill="#31343C" d="M13.46 30.3h6.49v.7q0 .31-.07.5-.06.19-.13.32l-3.56 7.33q-.11.23-.31.39t-.54.16h-1.16l3.63-7.18q.12-.22.24-.41.12-.18.27-.35h-4.49q-.15 0-.26-.11-.11-.11-.11-.26V30.3ZM27.61 35q0 1.23-.27 2.14-.26.9-.73 1.49-.46.6-1.09.88-.64.29-1.37.29-.74 0-1.36-.29-.63-.28-1.09-.88-.46-.59-.72-1.49-.26-.91-.26-2.14t.26-2.14q.26-.9.72-1.49.46-.59 1.09-.88.62-.29 1.36-.29.73 0 1.37.29.63.29 1.09.88.47.59.73 1.49.27.91.27 2.14Zm-1.66 0q0-1.02-.15-1.69-.15-.67-.4-1.07-.25-.39-.58-.55-.32-.16-.67-.16-.35 0-.67.16-.32.16-.57.55-.24.4-.39 1.07-.15.67-.15 1.69t.15 1.69q.15.67.39 1.07.25.39.57.55.32.16.67.16.35 0 .67-.16.33-.16.58-.55.25-.4.4-1.07.15-.67.15-1.69Zm11.98 2.55-.85.84-2.21-2.21-2.22 2.22-.85-.84 2.22-2.23-2.12-2.12.85-.84 2.12 2.12 2.1-2.11.86.85-2.11 2.11 2.21 2.21Zm4.46-7.25h6.5v.7q0 .31-.07.5-.06.19-.13.32l-3.56 7.33q-.11.23-.31.39t-.54.16h-1.16l3.63-7.18q.12-.22.24-.41.12-.18.27-.35h-4.5q-.15 0-.26-.11-.11-.11-.11-.26V30.3ZM56.54 35q0 1.23-.26 2.14-.26.9-.73 1.49-.46.6-1.1.88-.63.29-1.36.29-.74 0-1.37-.29-.62-.28-1.08-.88-.47-.59-.73-1.49-.26-.91-.26-2.14t.26-2.14q.26-.9.73-1.49.46-.59 1.08-.88.63-.29 1.37-.29.73 0 1.36.29.64.29 1.1.88.47.59.73 1.49.26.91.26 2.14Zm-1.65 0q0-1.02-.15-1.69-.15-.67-.4-1.07-.25-.39-.58-.55-.32-.16-.67-.16-.35 0-.67.16-.32.16-.57.55-.25.4-.39 1.07-.15.67-.15 1.69t.15 1.69q.14.67.39 1.07.25.39.57.55.32.16.67.16.35 0 .67-.16.33-.16.58-.55.25-.4.4-1.07.15-.67.15-1.69Z"/></svg>